<svg width="24" height="24" viewBox="0 0 24 24" fill="none" xmlns="http://www.w3.org/2000/svg">
<path d="M16.3076 4.38356C15.7176 4.38356 15.4216 4.38356 15.1526 4.28356L15.0416 4.23756C14.7806 4.11756 14.5716 3.90956 14.1536 3.49156C13.1916 2.52956 12.7106 2.04856 12.1196 2.00356C12.0396 1.99875 11.9595 1.99875 11.8796 2.00356C11.2886 2.04856 10.8076 2.52956 9.84555 3.49156C9.42755 3.90956 9.21855 4.11856 8.95755 4.23756L8.84755 4.28356C8.57755 4.38356 8.28255 4.38356 7.69155 4.38356H7.58155C6.07455 4.38356 5.32055 4.38356 4.85155 4.85156C4.38255 5.31956 4.38355 6.07456 4.38355 7.58156V7.69156C4.38355 8.28156 4.38355 8.57756 4.28355 8.84656C4.26888 8.88456 4.25355 8.92156 4.23755 8.95756C4.11755 9.21856 3.90955 9.42756 3.49155 9.84556C2.52955 10.8076 2.04855 11.2886 2.00355 11.8796C1.99875 11.9595 1.99875 12.0396 2.00355 12.1196C2.04855 12.7106 2.52955 13.1916 3.49155 14.1536C3.90955 14.5716 4.11855 14.7806 4.23755 15.0416C4.25422 15.0776 4.26955 15.1142 4.28355 15.1516C4.38355 15.4216 4.38355 15.7166 4.38355 16.3076V16.4176C4.38355 17.9246 4.38355 18.6786 4.85155 19.1476C5.31955 19.6166 6.07455 19.6156 7.58155 19.6156H7.69155C8.28155 19.6156 8.57755 19.6156 8.84655 19.7156C8.88455 19.7296 8.92155 19.7449 8.95755 19.7616C9.21855 19.8816 9.42755 20.0896 9.84555 20.5076C10.8076 21.4696 11.2886 21.9506 11.8796 21.9956C11.9596 22.0016 12.0396 22.0016 12.1196 21.9956C12.7106 21.9506 13.1916 21.4696 14.1536 20.5076C14.5716 20.0896 14.7806 19.8816 15.0416 19.7616C15.0776 19.7449 15.1142 19.7296 15.1516 19.7156C15.4216 19.6156 15.7166 19.6156 16.3076 19.6156H16.4176C17.9246 19.6156 18.6786 19.6156 19.1476 19.1476C19.6166 18.6796 19.6156 17.9246 19.6156 16.4176V16.3076C19.6156 15.7176 19.6156 15.4216 19.7156 15.1526C19.7296 15.1146 19.7449 15.0776 19.7616 15.0416C19.8816 14.7806 20.0896 14.5716 20.5076 14.1536C21.4696 13.1916 21.9506 12.7106 21.9956 12.1196C22.0016 12.0396 22.0016 11.9596 21.9956 11.8796C21.9506 11.2886 21.4696 10.8076 20.5076 9.84556C20.0896 9.42756 19.8816 9.21856 19.7616 8.95756L19.7156 8.84756C19.6156 8.57756 19.6156 8.28256 19.6156 7.69156V7.58156C19.6156 6.07456 19.6156 5.32056 19.1476 4.85156C18.6796 4.38256 17.9246 4.38356 16.4176 4.38356H16.3076Z" stroke="white" stroke-width="1.5" stroke-linecap="round" stroke-linejoin="round"/>
<path d="M8.50322 16.5002C8.85791 15.8858 9.36811 15.3757 9.98251 15.0211C10.5969 14.6665 11.2938 14.4799 12.0032 14.4802C13.4992 14.4802 14.8042 15.2922 15.5032 16.5002M14.0032 10.0002C14.0032 10.5306 13.7925 11.0393 13.4174 11.4144C13.0424 11.7895 12.5337 12.0002 12.0032 12.0002C11.4728 12.0002 10.9641 11.7895 10.589 11.4144C10.2139 11.0393 10.0032 10.5306 10.0032 10.0002C10.0032 9.46973 10.2139 8.96103 10.589 8.58595C10.9641 8.21088 11.4728 8.00017 12.0032 8.00017C12.5337 8.00017 13.0424 8.21088 13.4174 8.58595C13.7925 8.96103 14.0032 9.46973 14.0032 10.0002Z" stroke="white" stroke-width="1.5" stroke-linecap="round" stroke-linejoin="round"/>
</svg>
